<svg id="Layer_1" data-name="Layer 1" xmlns="http://www.w3.org/2000/svg" viewBox="0 0 484.73 484.73"><title>estilo3</title><g id="imagelogoreal"><path d="M431.2,1379.78a1008,1008,0,0,1-46.1-189.66c25.27-2.24,48.85-2.53,68.46,1.7,7.67-32.06,17.7-58.25,27.64-69.81-.05-.14-.11-.27-.16-.41l1.37-.92c2.63-2.74,5.25-4.46,7.81-4.93,15.32-2.84,21.81-19.37,34.58-23.1,13.18-40.44,26.44-78.26,40.83-77.7,42.82.85,92.2,32.92,71.12,48.73-6.29,15.39-15,26.6-29,29a14.63,14.63,0,0,1,6.58,9.22c-1.7,4.12-6.72,6.4-13.17,7.91-.7,9.73-2.85,18.76-7.9,26.34-7.41,4.66-16.78,5.22-27.66,2.63a597.89,597.89,0,0,1,32.35,56.8c28.33,6.31,53.47,8.48,74.34,5.1,21.68-22.58,47.9-34.44,80.34-31.61-27.9,9.48-63.72,41.45-47.42,92.2-12.62-3.28-24.32-4-32.92,4a45,45,0,0,0-6.65-3L670.4,1292a348.58,348.58,0,0,1-39.23,1.66c3.14,15.14,5.32,29.81,5.67,43.6l73.49,73.49a242,242,0,0,0,94.87-192.31c0-133.86-108.51-242.37-242.37-242.37s-242.36,108.51-242.36,242.37a242.11,242.11,0,0,0,105.52,200Z" transform="translate(-320.47 -976.05)" fill="#fff"/><path d="M631.57,1375.19A70.05,70.05,0,0,1,624.9,1389l7.47,61.64a240.55,240.55,0,0,0,54.13-23.76C667.86,1409.59,649.11,1392,631.57,1375.19Z" transform="translate(-320.47 -976.05)" fill="#fff"/><path d="M549.87,1460.44q6.43.33,13,.34c1.4,0,2.8,0,4.19,0A232.75,232.75,0,0,1,548.77,1425C549.07,1437.08,549.49,1448.93,549.87,1460.44Z" transform="translate(-320.47 -976.05)" fill="#fff"/><path d="M526,1402.17l-64.54-7.9q-2.39,20.89-5.56,41.71a240.56,240.56,0,0,0,70.1,22Z" transform="translate(-320.47 -976.05)" fill="#fff"/><path d="M597.24,1449.58l.36,8.71q6.48-.93,12.85-2.19L609.1,1447Z" transform="translate(-320.47 -976.05)" fill="#fff"/></g></svg>